<?xml version="1.0" standalone="no"?>
<!DOCTYPE svg PUBLIC "-//W3C//DTD SVG 20010904//EN"
 "http://www.w3.org/TR/2001/REC-SVG-20010904/DTD/svg10.dtd">
<svg version="1.0" xmlns="http://www.w3.org/2000/svg"
 width="181.000000pt" height="113.000000pt" viewBox="0 0 181.000000 113.000000"
 preserveAspectRatio="xMidYMid meet">

<g transform="translate(0.000000,113.000000) scale(0.100000,-0.100000)"
fill="#000000" stroke="none">
<path d="M318 1093 c-3 -24 -7 -28 -31 -25 -23 3 -48 -14 -145 -99 -64 -56
-121 -105 -125 -109 -6 -5 114 -109 191 -166 2 -1 -3 -27 -11 -58 l-15 -56 36
-10 c55 -15 62 -13 69 20 3 17 8 28 11 25 3 -3 25 13 48 36 40 40 41 40 36 14
l-5 -28 82 6 82 6 -50 -58 c-28 -32 -57 -64 -66 -71 -8 -7 -15 -18 -15 -24 0
-6 71 -65 157 -130 118 -91 157 -116 163 -105 25 43 72 99 80 94 5 -3 11 -1
15 5 10 16 27 0 20 -18 -3 -9 -3 -13 1 -9 4 4 13 2 20 -4 8 -6 21 -9 29 -5 9
3 13 2 10 -4 -3 -6 -1 -10 5 -10 6 0 9 -4 6 -8 -3 -5 1 -9 9 -9 8 0 15 5 15
11 0 6 5 4 10 -4 5 -8 10 -12 10 -7 0 4 17 -1 39 -12 21 -11 41 -17 45 -14 3
3 8 -2 12 -11 6 -15 7 -15 21 1 13 17 14 16 8 -9 -3 -16 -1 -28 5 -28 5 0 10
6 10 14 0 8 5 18 12 22 7 4 8 3 4 -5 -5 -8 1 -10 23 -6 18 3 31 1 31 -5 0 -5
5 -10 11 -10 5 0 8 4 5 8 -3 4 11 9 30 9 19 1 37 -3 40 -8 3 -5 13 -5 23 1 10
5 33 8 50 5 17 -2 31 0 31 5 0 4 26 11 58 13 118 11 148 19 137 38 -3 5 2 6
11 2 10 -4 15 -2 11 4 -3 5 0 10 8 10 8 0 15 -4 15 -9 0 -5 4 -7 9 -4 5 3 49
-7 98 -23 48 -16 89 -28 91 -26 1 1 -42 65 -98 142 -55 77 -100 143 -100 146
0 3 16 9 35 13 19 3 35 11 35 18 0 6 -11 40 -24 76 l-23 65 -109 37 c-60 20
-113 37 -117 37 -5 1 -7 -24 -5 -54 1 -30 1 -55 -2 -55 -3 0 -52 -4 -110 -10
-76 -6 -130 -6 -195 3 l-90 13 -6 114 c-4 63 -7 137 -8 164 l-1 49 -187 -6
c-151 -6 -190 -10 -199 -22 -14 -19 -55 -20 -48 -2 3 9 -18 19 -71 32 -59 14
-74 22 -71 34 22 73 22 71 -32 71 -48 0 -51 -2 -54 -27z m72 -1 c0 -4 -4 -22
-9 -39 l-9 -33 71 -21 72 -21 -39 -20 c-37 -19 -65 -20 -107 -3 -13 5 -20 -6
-33 -52 -8 -32 -14 -43 -11 -25 5 35 -10 44 -20 11 -12 -36 -14 -15 -4 30 5
24 7 46 5 49 -3 2 -26 -17 -52 -44 -26 -27 -39 -39 -30 -28 15 20 15 22 1 28
-9 3 -13 2 -10 -4 3 -6 -3 -10 -15 -10 -14 0 -19 4 -14 13 4 6 -2 4 -13 -5
-11 -10 -25 -18 -32 -18 -7 0 -26 -10 -43 -21 l-29 -21 28 -31 28 -31 -32 25
c-18 13 -32 27 -32 30 -1 5 83 82 195 181 17 15 26 17 47 9 16 -6 27 -7 27 -1
0 27 22 60 40 60 11 0 20 -3 20 -8z m460 -134 c0 -57 10 -79 34 -76 18 3 21
11 24 56 3 48 5 52 28 52 24 0 24 -2 24 -82 0 -46 -4 -78 -8 -72 -22 33 -103
21 -113 -16 -7 -25 -7 -24 -8 3 -1 20 -7 31 -21 34 -17 5 -20 14 -20 62 0 64
3 71 37 71 19 0 23 -5 23 -32z m-80 -17 c0 -22 -3 -46 -6 -55 -9 -24 -34 -6
-34 25 0 37 -27 39 -36 4 -8 -33 -4 -37 59 -55 38 -12 52 -21 54 -35 2 -17 1
-17 -3 -2 -4 13 -14 17 -45 15 -21 -2 -39 -7 -39 -11 0 -4 -9 -3 -19 3 -24 12
-41 -7 -20 -22 12 -8 11 -9 -1 -5 -9 2 -20 27 -27 63 -7 32 -18 67 -24 78 -16
27 4 36 79 36 l62 0 0 -39z m-137 -54 c4 -29 9 -69 12 -88 l5 -34 -12 31 c-8
19 -18 29 -27 26 -8 -3 -11 0 -7 7 5 7 1 9 -9 5 -11 -5 -17 2 -21 25 -8 40
-38 39 -42 -2 -3 -21 1 -27 17 -27 11 0 22 -3 25 -8 2 -4 -11 -7 -29 -6 -26 2
-42 -6 -65 -28 -18 -16 -34 -28 -36 -25 -3 3 13 20 35 38 47 37 53 59 15 59
-22 0 -24 3 -19 23 4 12 9 30 11 40 5 14 17 17 73 17 l68 0 6 -53z m-392 -44
c13 -16 12 -17 -3 -4 -17 13 -22 21 -14 21 2 0 10 -8 17 -17z m249 -2 c0 -5
-8 -15 -17 -22 -16 -13 -17 -12 -5 3 10 13 10 17 0 21 -8 4 -7 6 5 6 9 1 17
-3 17 -8z m93 -58 c-7 -2 -19 -2 -25 0 -7 3 -2 5 12 5 14 0 19 -2 13 -5z m102
-13 c3 -5 1 -10 -4 -10 -6 0 -11 5 -11 10 0 6 2 10 4 10 3 0 8 -4 11 -10z
m820 -36 c44 -15 84 -30 88 -34 11 -10 38 -113 31 -119 -3 -3 -39 -6 -81 -7
-41 0 -78 -5 -81 -11 -5 -7 -11 -6 -20 3 -7 8 -8 14 -2 14 5 0 10 20 10 45 0
32 -4 45 -14 45 -9 0 -15 15 -18 45 -2 25 -1 45 2 45 3 0 41 -12 85 -26z
m-762 -51 c51 -15 94 -28 96 -29 1 -2 -9 -18 -23 -37 l-27 -35 -61 24 c-34 13
-62 23 -63 21 0 -1 -21 -26 -45 -56 l-44 -53 25 -18 c13 -10 20 -22 16 -26 -4
-4 -7 -2 -7 4 0 6 -9 14 -21 17 -14 5 -19 13 -16 25 4 17 2 17 -29 4 -48 -20
-55 -17 -14 7 19 11 26 17 15 13 -11 -3 -26 -7 -33 -7 -7 0 -24 -13 -37 -29
-13 -15 -26 -25 -28 -21 -5 9 183 222 196 222 4 1 49 -11 100 -26z m158 -37
c1 -17 3 -61 5 -98 2 -43 0 -68 -7 -68 -5 0 -8 4 -4 9 3 5 1 12 -4 15 -5 4
-12 2 -16 -4 -4 -6 -12 -7 -24 -1 -15 9 -17 6 -16 -20 1 -16 -2 -29 -7 -29 -4
0 -8 34 -8 75 0 54 5 83 17 102 16 24 16 26 0 38 -23 16 -14 22 28 17 31 -4
35 -7 36 -36z m127 7 c33 -4 42 -10 42 -25 0 -18 -5 -19 -36 -13 -26 4 -39 2
-45 -7 -15 -22 -10 -28 21 -28 19 0 30 -5 30 -14 0 -15 -60 -18 -71 -3 -3 5
-13 2 -21 -7 -22 -22 -28 -10 -28 57 l0 60 33 -7 c17 -4 51 -9 75 -13z m412
-22 c0 -26 -4 -30 -32 -33 -41 -4 -45 -32 -5 -36 16 -2 27 -9 27 -18 0 -11 -8
-14 -27 -12 -22 2 -28 -1 -27 -14 1 -10 -2 -16 -6 -13 -5 3 -11 -5 -13 -17 -2
-14 -5 -6 -6 17 -1 22 -4 63 -7 92 -7 56 -4 59 64 62 29 1 32 -2 32 -28z
m-111 -63 c0 -53 -3 -76 -8 -63 -5 11 -7 23 -4 28 2 4 1 7 -4 8 -4 0 -18 2
-30 3 -21 2 -28 -5 -24 -27 1 -5 -3 -6 -9 -2 -6 3 -8 11 -5 16 6 9 -7 13 -31
10 -9 -1 -34 68 -34 93 0 3 16 6 35 6 29 0 37 -5 47 -27 10 -25 12 -26 15 -8
8 39 13 45 33 45 19 0 20 -6 19 -82z m-152 7 c14 -70 15 -89 3 -57 -8 18 -17
22 -54 22 -26 0 -46 -5 -49 -12 -10 -25 -7 24 4 68 11 44 13 45 47 42 36 -3
37 -4 49 -63z m397 -48 c16 -23 23 -37 16 -30 -7 6 -20 9 -29 6 -13 -4 -14 -3
-1 5 12 9 12 14 -4 31 -10 11 -23 18 -29 14 -6 -3 -7 -1 -3 5 11 19 19 14 50
-31z m-59 13 c3 -6 -1 -7 -9 -4 -18 7 -21 14 -7 14 6 0 13 -4 16 -10z m-292
-15 c-3 -9 -8 -14 -10 -11 -3 3 -2 9 2 15 9 16 15 13 8 -4z m-80 -12 c-7 -2
-19 -2 -25 0 -7 3 -2 5 12 5 14 0 19 -2 13 -5z m101 -11 c3 -5 -1 -9 -9 -9 -8
0 -12 4 -9 9 3 4 7 8 9 8 2 0 6 -4 9 -8z m213 -24 c-3 -8 -6 -5 -6 6 -1 11 2
17 5 13 3 -3 4 -12 1 -19z m-967 -8 c0 -5 -2 -10 -4 -10 -3 0 -8 5 -11 10 -3
6 -1 10 4 10 6 0 11 -4 11 -10z m165 -8 c-3 -3 -11 0 -18 7 -9 10 -8 11 6 5
10 -3 15 -9 12 -12z m30 -12 c3 -5 1 -10 -4 -10 -6 0 -11 5 -11 10 0 6 2 10 4
10 3 0 8 -4 11 -10z m99 2 c3 -5 -1 -9 -9 -9 -8 0 -12 4 -9 9 3 4 7 8 9 8 2 0
6 -4 9 -8z m256 -17 c7 -9 10 -19 6 -22 -4 -4 -11 -1 -16 7 -7 12 -11 7 -16
-17 -4 -18 -11 -33 -16 -33 -5 0 -6 10 -3 23 4 12 9 30 11 40 6 21 18 22 34 2z
m40 5 c0 -5 -4 -10 -10 -10 -5 0 -10 5 -10 10 0 6 5 10 10 10 6 0 10 -4 10
-10z m-519 -27 c13 -16 12 -17 -3 -4 -17 13 -22 21 -14 21 2 0 10 -8 17 -17z
m518 -35 c-1 -36 -2 -39 -9 -18 l-7 25 -12 -28 c-11 -29 -40 -35 -48 -10 -3 7
3 9 16 6 23 -6 31 21 9 30 -7 3 -1 6 15 6 17 1 27 6 27 16 0 8 2 15 5 15 3 0
5 -19 4 -42z m44 30 c4 -10 8 -9 16 2 8 11 11 4 10 -30 0 -25 -3 -38 -6 -30
-10 25 -26 30 -41 12 -12 -15 -13 -14 -8 8 3 14 6 31 6 38 0 6 4 12 9 12 5 0
12 -6 14 -12z m73 -1 c12 17 13 16 14 -7 0 -14 3 -35 6 -47 4 -14 2 -23 -5
-23 -6 0 -11 12 -11 28 l0 27 -21 -25 c-15 -18 -19 -20 -15 -7 3 10 7 31 7 45
1 19 3 21 6 9 5 -18 5 -18 19 0z m46 -47 c4 -54 5 -55 39 -61 34 -6 34 -6 -8
-8 l-43 -1 0 67 c0 79 7 80 12 3z m51 15 c9 -25 14 -45 12 -45 -2 0 -15 4 -30
10 -22 8 -24 14 -19 37 13 56 18 56 37 -2z m120 -5 c4 0 5 11 1 25 -3 14 -2
25 4 25 5 0 12 -10 15 -23 4 -12 30 -40 59 -61 31 -24 47 -41 39 -44 -7 -2
-16 0 -20 5 -3 5 -23 22 -43 37 -37 27 -38 28 -38 7 0 -11 -5 -21 -11 -21 -6
0 -8 9 -3 23 6 21 6 21 -13 5 -24 -22 -37 -23 -53 -3 -10 12 -10 18 0 30 10
12 10 15 -4 15 -11 0 -16 -10 -17 -32 l-1 -33 -13 40 c-14 45 -3 56 34 35 18
-9 21 -8 21 7 0 14 5 11 18 -9 9 -16 20 -28 25 -28z m62 39 c11 -16 1 -19 -13
-3 -7 8 -8 14 -3 14 5 0 13 -5 16 -11z"/>
<path d="M1490 644 c0 -34 12 -42 39 -25 18 12 5 47 -19 54 -17 4 -20 0 -20
-29z"/>
<path d="M1120 570 c0 -11 6 -20 14 -20 9 0 12 7 9 20 -3 11 -9 20 -14 20 -5
0 -9 -9 -9 -20z"/>
<path d="M1270 365 c0 -8 4 -15 10 -15 5 0 7 7 4 15 -4 8 -8 15 -10 15 -2 0
-4 -7 -4 -15z"/>
<path d="M1362 369 c2 -7 10 -15 17 -17 8 -3 12 1 9 9 -2 7 -10 15 -17 17 -8
3 -12 -1 -9 -9z"/>
</g>
</svg>
